<svg width="40" height="40" viewBox="0 0 40 40" fill="none" xmlns="http://www.w3.org/2000/svg">
<mask id="mask0_2_126" style="mask-type:luminance" maskUnits="userSpaceOnUse" x="0" y="0" width="40" height="40">
<path d="M0 0H40V40H0V0Z" fill="white"/>
</mask>
<g mask="url(#mask0_2_126)">
<path d="M38.8263 13.5095C38.8263 7.77262 34.1758 3.12209 28.44 3.12209C24.9579 3.12209 21.8852 4.84104 20 7.46841C18.1158 4.84104 15.0421 3.12209 11.561 3.12209C5.82417 3.12209 1.17365 7.77262 1.17365 13.5095C1.17365 14.3221 1.2768 15.1095 1.45364 15.8684C2.8968 24.8284 12.8589 34.2831 20 36.8789C27.14 34.2831 37.1042 24.8284 38.5442 15.8684C38.7231 15.1095 38.8263 14.3221 38.8263 13.5095Z" fill="#DB995D"/>
</g>
</svg>
