<svg width="0" height="0" class="hidden">
  <symbol xmlns="http://www.w3.org/2000/svg" viewBox="0 0 50 50" id="telegram">
    <path d="M25 8.61347e-08C20.0555 8.61347e-08 15.222 1.46622 11.1108 4.21326C6.99952 6.96029 3.79521 10.8648 1.90302 15.4329C0.0108321 20.0011 -0.484251 25.0277 0.480379 29.8772C1.44501 34.7268 3.82603 39.1813 7.32234 42.6777C10.8187 46.174 15.2732 48.555 20.1228 49.5196C24.9723 50.4843 29.9989 49.9892 34.5671 48.097C39.1352 46.2048 43.0397 43.0005 45.7867 38.8892C48.5338 34.778 50 29.9445 50 25C50.0003 21.7169 49.3538 18.4658 48.0975 15.4326C46.8413 12.3993 44.9998 9.64324 42.6783 7.32172C40.3568 5.0002 37.6007 3.15873 34.5674 1.90246C31.5342 0.646186 28.2831 -0.000272447 25 8.61347e-08ZM32.9488 37.8812C32.8552 38.1145 32.7128 38.3251 32.5312 38.4989C32.3496 38.6727 32.1329 38.8057 31.8957 38.8889C31.6584 38.9721 31.4062 39.0037 31.1558 38.9814C30.9054 38.9592 30.6626 38.8836 30.4438 38.7599L23.6571 33.4865L19.3013 37.505C19.2002 37.5797 19.082 37.6277 18.9575 37.6447C18.833 37.6617 18.7062 37.6472 18.5888 37.6023L19.4238 30.1312L19.4505 30.1524L19.4676 30.0049C19.4676 30.0049 31.6801 18.8861 32.1776 18.4124C32.6813 17.9399 32.5151 17.8374 32.5151 17.8374C32.5438 17.2611 31.6113 17.8374 31.6113 17.8374L15.43 28.2475L8.69128 25.9525C8.69128 25.9525 7.65628 25.5812 7.55878 24.765C7.45628 23.955 8.72501 23.515 8.72501 23.515L35.5175 12.8712C35.5175 12.8712 37.72 11.8899 37.72 13.515L32.9488 37.8812Z"></path>
  </symbol>
  <symbol fill="none" xmlns="http://www.w3.org/2000/svg" viewBox="0 0 81 74" id="schedule">
    <path d="M25.7865 11.8516V14.5254C25.7865 15.603 26.855 16.4766 27.986 16.4766C29.117 16.4766 30.1854 15.603 30.1854 14.5254V11.8516M25.7865 11.8516V6.14258C25.7865 5.06498 26.855 4.19141 27.986 4.19141C29.117 4.19141 30.1854 5.06498 30.1854 6.14258V11.8516M25.7865 11.8516H15.1686C13.6606 11.8516 12.4382 13.0163 12.4382 14.4531V59.4023C12.4382 60.8391 13.6606 62.0039 15.1686 62.0039H62.3427C63.8506 62.0039 65.0731 60.8391 65.0731 59.4023V14.4531C65.0731 13.0163 63.8506 11.8516 62.3427 11.8516H51.8764M30.1854 11.8516H47.4776M51.8764 11.8516V14.5254C51.8764 15.603 50.808 16.4766 49.677 16.4766C48.546 16.4766 47.4776 15.603 47.4776 14.5254V11.8516M51.8764 11.8516V6.14258C51.8764 5.06498 50.808 4.19141 49.677 4.19141C48.546 4.19141 47.4776 5.06498 47.4776 6.14258V11.8516" stroke="#DB995D" stroke-width="2"></path>
    <mask id="mask0_4107_132" maskUnits="userSpaceOnUse" x="0" y="-8" width="78" height="83">
      <path d="M25.7866 6.14258C25.7866 5.06498 26.855 4.19141 27.986 4.19141C29.117 4.19141 30.1854 5.06498 30.1854 6.14258V11.8516V14.5254C30.1854 15.603 29.117 16.4766 27.986 16.4766C26.855 16.4766 25.7866 15.603 25.7866 14.5254V11.8516V6.14258Z" fill="#D9D9D9"></path>
      <path d="M47.4775 6.14258C47.4775 5.06498 48.546 4.19141 49.677 4.19141C50.8079 4.19141 51.8764 5.06498 51.8764 6.14258V11.8516V14.5254C51.8764 15.603 50.8079 16.4766 49.677 16.4766C48.546 16.4766 47.4775 15.603 47.4775 14.5254V11.8516V6.14258Z" fill="#D9D9D9"></path>
      <path d="M65.0731 59.4023V14.4531C65.0731 13.0163 63.8506 11.8516 62.3427 11.8516H51.8764V14.5254C51.8764 15.603 50.808 16.4766 49.677 16.4766C48.546 16.4766 47.4776 15.603 47.4776 14.5254V11.8516H30.1854V14.5254C30.1854 15.603 29.117 16.4766 27.986 16.4766C26.855 16.4766 25.7865 15.603 25.7865 14.5254V11.8516H15.1686C13.6606 11.8516 12.4382 13.0163 12.4382 14.4531V59.4023C12.4382 60.8391 13.6606 62.0039 15.1686 62.0039H62.3427C63.8506 62.0039 65.0731 60.8391 65.0731 59.4023Z" fill="#D9D9D9"></path>
      <path d="M25.7865 11.8516V14.5254C25.7865 15.603 26.855 16.4766 27.986 16.4766C29.117 16.4766 30.1854 15.603 30.1854 14.5254V11.8516M25.7865 11.8516V6.14258C25.7865 5.06498 26.855 4.19141 27.986 4.19141C29.117 4.19141 30.1854 5.06498 30.1854 6.14258V11.8516M25.7865 11.8516H15.1686C13.6606 11.8516 12.4382 13.0163 12.4382 14.4531V59.4023C12.4382 60.8391 13.6606 62.0039 15.1686 62.0039H62.3427C63.8506 62.0039 65.0731 60.8391 65.0731 59.4023V14.4531C65.0731 13.0163 63.8506 11.8516 62.3427 11.8516H51.8764M30.1854 11.8516H47.4776M51.8764 11.8516V14.5254C51.8764 15.603 50.808 16.4766 49.677 16.4766C48.546 16.4766 47.4776 15.603 47.4776 14.5254V11.8516M51.8764 11.8516V6.14258C51.8764 5.06498 50.808 4.19141 49.677 4.19141C48.546 4.19141 47.4776 5.06498 47.4776 6.14258V11.8516" stroke="black" stroke-width="24"></path>
    </mask>
    <g mask="url(#mask0_4107_132)">
      <path d="M31.7023 21.2461H24.2697C22.7618 21.2461 21.5394 22.4109 21.5394 23.8477V30.9297C21.5394 32.3665 22.7618 33.5312 24.2697 33.5312H31.7023C33.2102 33.5312 34.4326 32.3665 34.4326 30.9297V23.8477C34.4326 22.4109 33.2102 21.2461 31.7023 21.2461Z" stroke="#DB995D" stroke-width="2"></path>
      <path d="M31.7023 40.4688H24.2697C22.7618 40.4688 21.5394 41.6335 21.5394 43.0703V50.1523C21.5394 51.5891 22.7618 52.7539 24.2697 52.7539H31.7023C33.2102 52.7539 34.4326 51.5891 34.4326 50.1523V43.0703C34.4326 41.6335 33.2102 40.4688 31.7023 40.4688Z" stroke="#DB995D" stroke-width="2"></path>
      <path d="M53.3933 21.2461H45.9607C44.4528 21.2461 43.2303 22.4109 43.2303 23.8477V30.9297C43.2303 32.3665 44.4528 33.5312 45.9607 33.5312H53.3933C54.9012 33.5312 56.1236 32.3665 56.1236 30.9297V23.8477C56.1236 22.4109 54.9012 21.2461 53.3933 21.2461Z" stroke="#DB995D" stroke-width="2"></path>
      <path d="M45.5313 44.5651C46.5212 42.6291 49.8962 43.3228 49.8962 44.5651H49.9129C49.9129 43.3228 53.2879 42.6291 54.2778 44.5651C55.7167 47.3787 52.0979 49.8291 49.9352 51.2936L49.9129 51.3086H49.8962L49.8739 51.2936C47.7112 49.8291 44.0924 47.3787 45.5313 44.5651Z" fill="#DA2B4A" stroke="#DA2B4A" stroke-width="5"></path>
      <path d="M41.393 41.5217C43.2622 37.4468 49.6353 38.907 49.6353 41.5217H49.6668C49.6668 38.907 56.0398 37.4468 57.9091 41.5217C60.6261 47.4439 53.7928 52.6016 49.7089 55.6842L49.6668 55.7158H49.6353L49.5932 55.6842C45.5093 52.6016 38.6759 47.4439 41.393 41.5217Z" fill="#DA2B4A" stroke="#DA2B4A" stroke-width="4"></path>
    </g>
  </symbol>

  <symbol fill="none" xmlns="http://www.w3.org/2000/svg" viewBox="0 0 57 66" id="arrow-left">
    <path d="M0 32.6203L56.5 2.28882e-05L40.9902 32.6203L56.5 65.2406L0 32.6203Z" fill="currentColor"></path>
  </symbol>
  <symbol fill="none" xmlns="http://www.w3.org/2000/svg" viewBox="0 0 57 66" id="arrow-right">
    <path d="M56.5 32.62L0 65.24L15.5098 32.62L0 0L56.5 32.62Z" fill="currentColor"></path>
  </symbol>

</svg>